<svg width="1708" height="372.983" overflow="visible" style="display: block;" viewBox="0 0 1708 372.983" fill="none" xmlns="http://www.w3.org/2000/svg">
<path id="Union" d="M485.032 68.0205C512.619 68.0205 534.631 73.123 551.069 83.3262C562.123 90.1755 571.051 98.7249 577.995 108.881V77.0908H655.086V363.914H577.995V336.233C570.248 345.114 560.989 352.53 550.219 358.529C532.836 368.165 511.295 372.983 485.599 372.983C462.547 372.983 442.424 369.204 425.229 361.646C408.035 354.089 393.581 343.507 381.866 329.903C370.152 316.299 361.365 300.144 355.508 281.438C349.65 262.733 346.722 242.609 346.722 219.936C346.722 197.262 349.745 176.666 355.791 158.149C361.837 139.632 370.813 123.666 382.717 110.251C394.62 96.8357 409.169 86.4432 426.363 79.0742C443.558 71.7052 463.114 68.0205 485.032 68.0205ZM996.326 229.005C996.326 255.835 1001.81 275.108 1012.76 286.822C1023.72 298.537 1039.22 304.395 1059.25 304.395C1080.41 304.394 1096.19 298.537 1106.58 286.822C1116.97 275.108 1122.17 255.835 1122.17 229.005V77.0898H1199.26V236.373C1199.26 266.605 1194.25 291.829 1184.24 312.047C1174.22 332.264 1158.82 347.476 1138.04 357.679C1117.25 367.882 1090.99 372.983 1059.25 372.983C1011.63 372.983 976.392 361.551 953.529 338.688C930.667 315.826 919.235 281.721 919.235 236.373V77.0898H996.326V229.005ZM308.363 363.867H231.272V337.32C223.715 345.681 214.74 352.767 204.348 358.482C186.775 368.119 164.952 372.937 138.877 372.937C115.825 372.937 95.7021 369.158 78.5078 361.6C61.3137 354.042 46.8593 343.461 35.1445 329.856C23.4298 316.252 14.6435 300.097 8.78613 281.392C2.92874 262.686 7.5211e-06 242.562 0 219.889C0 197.215 3.11729 176.619 9.35254 158.103C15.5878 139.586 24.6578 123.619 36.5615 110.204C48.4652 96.7888 63.3918 86.3963 81.3418 79.0273C99.2918 71.6584 119.793 67.9746 142.845 67.9746C170.809 67.9746 192.916 73.0761 209.166 83.2793C217.857 88.7587 225.179 95.2772 231.272 102.835V0H308.363V363.867ZM1588.4 68.0205C1605.02 68.0205 1620.61 70.6666 1635.16 75.957C1649.71 81.2476 1662.46 89.2778 1673.42 100.048C1684.38 110.818 1692.88 124.328 1698.93 140.577C1704.98 156.827 1708 176.1 1708 198.396V363.914H1630.91V198.396C1630.91 176.478 1625.43 160.889 1614.47 151.631C1603.51 142.372 1589.72 137.743 1573.09 137.743C1563.27 137.743 1553.91 139.726 1545.03 143.694C1536.15 147.662 1528.97 153.992 1523.49 162.684C1518.01 171.375 1515.27 183.28 1515.27 198.396V363.914H1438.18V198.396C1438.18 176.855 1432.8 161.361 1422.03 151.914C1411.26 142.467 1397.37 137.743 1380.36 137.743C1369.78 137.743 1360.05 139.916 1351.17 144.262C1342.29 148.608 1335.3 155.221 1330.2 164.102C1325.1 172.982 1322.55 184.413 1322.55 198.396V363.914H1245.46V77.0908H1316.88V107.795C1320.99 102.127 1325.47 96.9302 1330.48 92.3955C1339.17 84.4597 1349.38 78.4127 1361.09 74.2559C1372.81 70.099 1385.84 68.0205 1400.2 68.0205C1416.07 68.0205 1430.34 70.5713 1443 75.6729C1455.66 80.7744 1466.71 88.144 1476.16 97.7803C1481.64 103.401 1486.36 109.873 1490.47 116.959C1493.21 112.708 1496.19 108.645 1499.4 104.866C1506.2 96.9304 1514.14 90.2227 1523.21 84.7432C1532.28 79.2638 1542.29 75.1067 1553.25 72.2725C1564.21 69.4383 1575.93 68.0205 1588.4 68.0205ZM811.676 0C811.676 42.5052 777.235 77.0002 734.751 77.0898H888.767V141.71H811.676V268.684C811.676 279.642 813.849 287.389 818.194 291.924C822.54 296.459 830.193 298.727 841.151 298.727H888.767V363.913H812.243C788.814 363.913 770.013 356.923 755.842 342.94C741.671 328.958 734.585 310.441 734.585 287.39V141.71H676.767V77.0898H734.585V0H811.676ZM154.749 131.508C137.366 131.508 123.1 135.098 111.952 142.278C100.804 149.458 92.4902 159.378 87.0107 172.037C81.5312 184.697 78.791 199.718 78.791 217.102C78.791 236.374 81.5313 252.907 87.0107 266.7C92.4902 280.493 100.804 291.074 111.952 298.443C123.1 305.812 137.366 309.497 154.749 309.497C168.353 309.497 180.068 307.419 189.894 303.262C199.719 299.105 207.654 293.153 213.7 285.406C219.746 277.659 224.187 268.212 227.021 257.064C229.856 245.917 231.272 233.54 231.272 219.936C231.272 206.331 229.856 194.05 227.021 183.091C224.187 172.132 219.747 162.873 213.7 155.315C207.654 147.758 199.719 141.9 189.894 137.743C180.068 133.586 168.353 131.508 154.749 131.508ZM501.471 131.508C484.087 131.508 469.822 135.097 458.674 142.277C447.526 149.457 439.212 159.378 433.732 172.037C428.253 184.697 425.514 199.718 425.514 217.102C425.514 236.374 428.253 252.907 433.732 266.7C439.212 280.493 447.526 291.074 458.674 298.443C469.822 305.812 484.087 309.497 501.471 309.497C515.075 309.497 526.79 307.419 536.615 303.262C546.441 299.105 554.377 293.153 560.423 285.406C566.469 277.659 570.909 268.211 573.743 257.063C576.577 245.916 577.995 233.54 577.995 219.936C577.995 206.331 576.577 194.05 573.743 183.091C570.909 172.132 566.469 162.873 560.423 155.315C554.377 147.758 546.44 141.9 536.615 137.743C526.79 133.586 515.075 131.508 501.471 131.508Z" fill="var(--fill-0, white)"/>
</svg>
