<svg preserveAspectRatio="none" width="100%" height="100%" overflow="visible" style="display: block;" viewBox="0 0 90.3955 19.7402" fill="none" xmlns="http://www.w3.org/2000/svg">
<path id="Union" d="M25.6699 3.59961C27.1299 3.59961 28.295 3.87016 29.165 4.41016C29.75 4.77265 30.2224 5.22521 30.5898 5.7627V4.08008H34.6699V19.2598H30.5898V17.7949C30.1799 18.2648 29.69 18.6571 29.1201 18.9746C28.2001 19.4846 27.0601 19.7402 25.7002 19.7402C24.4802 19.7402 23.4149 19.5396 22.5049 19.1396C21.595 18.7397 20.8299 18.1799 20.21 17.46C19.59 16.74 19.1254 15.8845 18.8154 14.8945C18.5055 13.9046 18.3496 12.8395 18.3496 11.6396C18.3496 10.4398 18.5101 9.34999 18.8301 8.37012C19.1501 7.39016 19.6249 6.54494 20.2549 5.83496C20.8849 5.12496 21.6554 4.57457 22.5654 4.18457C23.4753 3.79471 24.5102 3.59963 25.6699 3.59961ZM52.7305 12.1201C52.7305 13.5397 53.0199 14.5597 53.5996 15.1797C54.1796 15.7997 55.0005 16.1104 56.0605 16.1104C57.1803 16.1103 58.0155 15.7996 58.5654 15.1797C59.1152 14.5597 59.3896 13.5398 59.3896 12.1201V4.08008H63.4697V12.5098C63.4697 14.1097 63.2048 15.4447 62.6748 16.5146C62.1449 17.5845 61.3303 18.3897 60.2305 18.9297C59.1306 19.4696 57.7403 19.7402 56.0605 19.7402C53.5405 19.7402 51.6748 19.1348 50.4648 17.9248C49.255 16.7148 48.6504 14.9096 48.6504 12.5098V4.08008H52.7305V12.1201ZM16.3203 19.2578H12.2402V17.8525C11.8403 18.295 11.3653 18.6702 10.8154 18.9727C9.88543 19.4827 8.72961 19.7373 7.34961 19.7373C6.12991 19.7373 5.06511 19.5376 4.15527 19.1377C3.24527 18.7377 2.48035 18.177 1.86035 17.457C1.2404 16.7371 0.77483 15.8825 0.464844 14.8926C0.154861 13.9026 1.67521e-05 12.8376 0 11.6377C0 10.4377 0.165117 9.34719 0.495117 8.36719C0.825114 7.38732 1.30464 6.54196 1.93457 5.83203C2.56449 5.12213 3.35485 4.5726 4.30469 4.18262C5.25458 3.79266 6.33975 3.5977 7.55957 3.59766C9.03957 3.59766 10.2103 3.86723 11.0703 4.40723C11.5303 4.69721 11.9178 5.04241 12.2402 5.44238V0H16.3203V19.2578ZM47.0371 7.5H42.958V14.2197C42.958 14.7997 43.0727 15.2102 43.3027 15.4502C43.5328 15.6901 43.9377 15.8096 44.5176 15.8096H47.0371V19.2598H42.9873C41.7476 19.2597 40.7528 18.8901 40.0029 18.1504C39.2529 17.4104 38.8779 16.43 38.8779 15.21V7.5H35.8174V4.08008H47.0371V7.5ZM84.0654 3.59961C84.9452 3.59964 85.7702 3.73961 86.54 4.01953C87.31 4.29953 87.9854 4.72492 88.5654 5.29492C89.1454 5.8649 89.5951 6.5805 89.915 7.44043C90.2349 8.30035 90.3955 9.32017 90.3955 10.5V19.2598H86.3154V10.5C86.3154 9.34022 86.0251 8.51542 85.4453 8.02539C84.8653 7.53539 84.1349 7.29004 83.2549 7.29004C82.7352 7.29007 82.2403 7.39468 81.7705 7.60449C81.3005 7.81449 80.9199 8.15035 80.6299 8.61035C80.34 9.07032 80.1953 9.70021 80.1953 10.5V19.2598H76.1152V10.5C76.1152 9.36 75.8298 8.54004 75.2598 8.04004C74.6898 7.54013 73.9546 7.29004 73.0547 7.29004C72.4948 7.2901 71.9797 7.40482 71.5098 7.63477C71.04 7.8647 70.6703 8.21485 70.4004 8.68457C70.1304 9.15457 69.9951 9.76 69.9951 10.5V19.2598H65.915V4.08008H69.6953V5.70508C69.9128 5.40509 70.15 5.12964 70.415 4.88965C70.875 4.46971 71.4152 4.14967 72.0352 3.92969C72.6551 3.70972 73.3455 3.59961 74.1055 3.59961C74.9453 3.59965 75.7002 3.73493 76.3701 4.00488C77.0401 4.27486 77.625 4.66487 78.125 5.1748C78.415 5.4723 78.6653 5.81543 78.8828 6.19043C79.0278 5.96543 79.1855 5.7498 79.3555 5.5498C79.7154 5.12995 80.1354 4.77528 80.6152 4.48535C81.0952 4.19536 81.6251 3.97519 82.2051 3.8252C82.7851 3.6752 83.4054 3.59961 84.0654 3.59961ZM8.19043 6.95996C7.27043 6.95996 6.5148 7.15027 5.9248 7.53027C5.33494 7.91026 4.89543 8.43557 4.60547 9.10547C4.31553 9.77542 4.16992 10.5703 4.16992 11.4902C4.16994 12.5101 4.31549 13.3853 4.60547 14.1152C4.89544 14.845 5.33499 15.405 5.9248 15.7949C6.5148 16.1849 7.27043 16.3799 8.19043 16.3799C8.9102 16.3798 9.52993 16.2697 10.0498 16.0498C10.5696 15.8299 10.9896 15.5152 11.3096 15.1055C11.6295 14.6956 11.8646 14.1952 12.0146 13.6055C12.1646 13.0155 12.2402 12.3596 12.2402 11.6396C12.2402 10.9199 12.1646 10.2703 12.0146 9.69043C11.8646 9.11043 11.6296 8.61973 11.3096 8.21973C10.9896 7.81991 10.5696 7.50997 10.0498 7.29004C9.52994 7.07013 8.91018 6.96 8.19043 6.95996ZM26.54 6.95996C25.6201 6.95997 24.8654 7.15031 24.2754 7.53027C23.6855 7.9102 23.2451 8.43468 22.9551 9.10449C22.6651 9.77449 22.5205 10.5702 22.5205 11.4902C22.5205 12.5101 22.6651 13.3853 22.9551 14.1152C23.2451 14.8451 23.6855 15.405 24.2754 15.7949C24.8654 16.1848 25.6202 16.3799 26.54 16.3799C27.26 16.3799 27.8804 16.2698 28.4004 16.0498C28.9202 15.8298 29.3402 15.5144 29.6602 15.1045C29.98 14.6946 30.2153 14.1943 30.3652 13.6045C30.5152 13.0146 30.5898 12.3595 30.5898 11.6396C30.5898 10.92 30.5151 10.2702 30.3652 9.69043C30.2152 9.11043 29.9802 8.61973 29.6602 8.21973C29.3402 7.81985 28.9202 7.51001 28.4004 7.29004C27.8804 7.07004 27.26 6.95996 26.54 6.95996ZM42.958 0C42.958 2.25238 41.1303 4.07988 38.8779 4.08008V0H42.958Z" fill="var(--fill-0, white)"/>
</svg>
